<?xml version="1.0" encoding="utf-8"?><svg xmlns="http://www.w3.org/2000/svg" xmlns:xlink="http://www.w3.org/1999/xlink"><symbol viewBox="0 0 56 30" id="burger" xmlns="http://www.w3.org/2000/svg"><path d="M0 .5h56v3H0zm14 13h42v3H14zm-14 13h56v3H0z"/></symbol><symbol viewBox="0 0 34 34" id="close" xmlns="http://www.w3.org/2000/svg"><path fill-rule="evenodd" clip-rule="evenodd" d="M26.43 9.43l-1.416-1.416-7.6 7.599-8.013-8.014-1.417 1.417 8.014 8.013-7.984 7.985L9.43 26.43l7.985-7.984 7.57 7.57 1.416-1.417-7.57-7.57 7.6-7.599z"/></symbol><symbol viewBox="0 0 24 24" id="logo-facebook" xmlns="http://www.w3.org/2000/svg"><g clip-path="url(#cclip0_21_5620)"><path d="M24 12.001a12 12 0 10-13.875 11.854V15.47H7.079V12h3.046V9.357c0-3.007 1.792-4.668 4.532-4.668.9.012 1.798.09 2.687.234v2.953H15.83a1.733 1.733 0 00-1.955 1.875v2.25h3.328l-.532 3.469h-2.796v8.385A12 12 0 0024 12.002z"/></g><defs><clipPath id="cclip0_21_5620"><path d="M0 0h24v24H0z"/></clipPath></defs></symbol><symbol viewBox="0 0 24 24" id="logo-github" xmlns="http://www.w3.org/2000/svg"><g clip-path="url(#dclip0_21_5623)"><path fill-rule="evenodd" clip-rule="evenodd" d="M12 .3C5.4.3 0 5.7 0 12.3c0 5.325 3.45 9.825 8.175 11.4.6.075.825-.225.825-.6v-2.025c-3.375.75-4.05-1.575-4.05-1.575-.525-1.35-1.35-1.725-1.35-1.725-1.125-.75.075-.75.075-.75 1.2.075 1.875 1.2 1.875 1.2 1.05 1.8 2.775 1.275 3.525.975a2.59 2.59 0 01.75-1.575c-2.7-.3-5.475-1.35-5.475-5.925 0-1.275.45-2.4 1.2-3.225-.15-.3-.525-1.5.15-3.15 0 0 .975-.3 3.3 1.2.975-.3 1.95-.375 3-.375s2.025.15 3 .375c2.325-1.575 3.3-1.275 3.3-1.275.675 1.65.225 2.85.15 3.15.75.825 1.2 1.875 1.2 3.225 0 4.575-2.775 5.625-5.475 5.925.45.375.825 1.125.825 2.25v3.3c0 .3.225.675.825.6A12.015 12.015 0 0024 12.3c0-6.6-5.4-12-12-12z"/></g><defs><clipPath id="dclip0_21_5623"><path d="M0 0h24v24H0z"/></clipPath></defs></symbol><symbol viewBox="0 0 24 24" id="logo-instagram" xmlns="http://www.w3.org/2000/svg"><g clip-path="url(#eclip0_21_5622)"><path d="M12 2.775c3 0 3.36.011 4.546.065a6.22 6.22 0 012.09.388c.488.18.93.468 1.292.841.374.363.661.805.842 1.293.248.67.38 1.376.387 2.09.055 1.188.068 1.548.068 4.548s-.011 3.36-.065 4.546a6.221 6.221 0 01-.388 2.09 3.728 3.728 0 01-2.134 2.134 6.22 6.22 0 01-2.09.387c-1.186.055-1.542.066-4.546.066-3.004 0-3.36-.011-4.546-.066a6.22 6.22 0 01-2.089-.387 3.483 3.483 0 01-1.293-.842 3.483 3.483 0 01-.841-1.293 6.22 6.22 0 01-.388-2.09c-.057-1.185-.07-1.541-.07-4.545s.011-3.36.065-4.546a6.22 6.22 0 01.388-2.09c.181-.488.47-.93.844-1.292a3.483 3.483 0 011.293-.842 6.22 6.22 0 012.09-.388C8.64 2.788 9 2.775 12 2.775zM12 .75c-3.056 0-3.439.013-4.638.068a8.283 8.283 0 00-2.732.525 5.5 5.5 0 00-1.991 1.296A5.523 5.523 0 001.34 4.63a8.283 8.283 0 00-.525 2.732C.763 8.562.75 8.944.75 12s.013 3.439.068 4.638c.02.934.197 1.857.525 2.731.282.75.726 1.43 1.298 1.992a5.522 5.522 0 001.992 1.299 8.279 8.279 0 002.731.525c1.2.055 1.583.067 4.638.067 3.056 0 3.439-.012 4.638-.067a8.28 8.28 0 002.732-.525 5.763 5.763 0 003.29-3.29 8.284 8.284 0 00.525-2.732c.055-1.2.067-1.583.067-4.638 0-3.056-.012-3.439-.067-4.638a8.284 8.284 0 00-.525-2.732 5.524 5.524 0 00-1.298-1.991 5.524 5.524 0 00-1.992-1.299A8.283 8.283 0 0016.64.815C15.44.763 15.055.75 12 .75z"/><path d="M12 6.225a5.775 5.775 0 100 11.55 5.775 5.775 0 000-11.55zm0 9.525a3.75 3.75 0 110-7.5 3.75 3.75 0 010 7.5zm6.005-8.405a1.35 1.35 0 100-2.7 1.35 1.35 0 000 2.7z"/></g><defs><clipPath id="eclip0_21_5622"><path d="M0 0h24v24H0z"/></clipPath></defs></symbol><symbol viewBox="0 0 24 24" id="logo-twitter" xmlns="http://www.w3.org/2000/svg"><g clip-path="url(#fclip0_21_5621)"><path d="M24 4.575c-.9.375-1.8.675-2.85.75 1.05-.6 1.8-1.575 2.175-2.7-.975.6-2.025.975-3.15 1.2C19.275 2.85 18 2.25 16.65 2.25c-2.7 0-4.95 2.175-4.95 4.95 0 .375.075.75.15 1.125C7.725 8.1 4.125 6.15 1.65 3.15a4.72 4.72 0 00-.675 2.475c0 1.725.9 3.225 2.175 4.125a4.582 4.582 0 01-2.25-.6v.075c0 2.4 1.725 4.35 3.975 4.8-.45.075-.825.15-1.275.15-.3 0-.6 0-.9-.075.6 1.95 2.475 3.375 4.575 3.45-1.65 1.35-3.825 2.1-6.15 2.1-.375 0-.825 0-1.2-.075 2.25 1.35 4.875 2.175 7.65 2.175 9.075 0 14.025-7.5 14.025-14.025v-.6c.9-.75 1.725-1.575 2.4-2.55z"/></g><defs><clipPath id="fclip0_21_5621"><path d="M0 0h24v24H0z"/></clipPath></defs></symbol><symbol viewBox="0 0 24 24" id="phone" xmlns="http://www.w3.org/2000/svg"><path d="M20 15.5c-1.25 0-2.45-.2-3.57-.57-.1-.03-.21-.05-.31-.05-.26 0-.51.1-.71.29l-2.2 2.2a15.045 15.045 0 01-6.59-6.59l2.2-2.21a.96.96 0 00.25-1A11.36 11.36 0 018.5 4c0-.55-.45-1-1-1H4c-.55 0-1 .45-1 1 0 9.39 7.61 17 17 17 .55 0 1-.45 1-1v-3.5c0-.55-.45-1-1-1zM5.03 5h1.5c.07.88.22 1.75.45 2.58l-1.2 1.21c-.4-1.21-.66-2.47-.75-3.79zM19 18.97c-1.32-.09-2.6-.35-3.8-.76l1.2-1.2c.85.24 1.72.39 2.6.45v1.51z"/></symbol><symbol viewBox="0 0 24 24" id="plus" xmlns="http://www.w3.org/2000/svg"><path d="M12 0a1.5 1.5 0 011.5 1.5v9h9a1.5 1.5 0 110 3h-9v9a1.5 1.5 0 11-3 0v-9h-9a1.5 1.5 0 110-3h9v-9A1.5 1.5 0 0112 0z"/></symbol><symbol viewBox="0 0 20 20" id="search" xmlns="http://www.w3.org/2000/svg"><path d="M18.092 16.909L15 13.841A7.5 7.5 0 1013.842 15l3.066 3.067a.833.833 0 001.184 0 .833.833 0 000-1.159zM9.167 15a5.834 5.834 0 110-11.668 5.834 5.834 0 010 11.668z"/></symbol></svg>